# xmcd CD database file
#
# Track frame offsets:
#	150
#	28362
#	57570
#	77884
#	100279
#	121868
#	138007
#	160093
#	182620
#	212305
#	240847
#
# Disc length: 3487 seconds
#
# Revision: 1
# Processed by: cddbd v1.5.1PL0 Copyright (c) Steve Scherf et al.
# Submitted via: CDex 1.51
#
DISCID=870d9d0b
DTITLE=Artisti Vati - Sacred Circle
DYEAR=1998
DGENRE=New Age
TTITLE0=The Western Lands - Material
TTITLE1=Ker Oupa - Olga Kharitidi and Jim Wilson
TTITLE2=Ghost Dance - Tulku
TTITLE3=Abangoma - Hugh Masekela
TTITLE4=Taré - Steve Shehan and Baly Othmani
TTITLE5=Forgiveness - Krishna Das
TTITLE6=Oweegon - LittleWolf Band
TTITLE7=Ya Tair - Yosefa
TTITLE8=Wounded Knee - Walela
TTITLE9=Sutu Kun - Vieux Diop
TTITLE10=Trance - Badar Ali Khan
EXTD=YEAR: 1998
EXTT0=
EXTT1=
EXTT2=
EXTT3=
EXTT4=
EXTT5=
EXTT6=
EXTT7=
EXTT8=
EXTT9=
EXTT10=
PLAYORDER=
